<?xml version="1.0" encoding="UTF-8"?>
<svg xmlns="http://www.w3.org/2000/svg" style="display:none">
  <symbol id="icon-home" viewBox="0 0 24 24" stroke-width="1.2" stroke-linecap="round" stroke-linejoin="round" fill="none">
    <path d="M3 11L12 3l9 8v8a1 1 0 0 1-1 1h-5v-6H9v6H4a1 1 0 0 1-1-1v-8z"/>
  </symbol>
  <symbol id="icon-add" viewBox="0 0 24 24" stroke-width="1.5" stroke-linecap="round" stroke-linejoin="round" fill="none">
    <path d="M12 5v14M5 12h14"/>
  </symbol>
  <symbol id="icon-trash" viewBox="0 0 24 24" stroke-width="1.2" stroke-linecap="round" stroke-linejoin="round" fill="none">
    <path d="M3 6h18"/>
    <path d="M8 6v14a2 2 0 0 0 2 2h4a2 2 0 0 0 2-2V6"/>
    <path d="M10 6V4a2 2 0 0 1 2-2h0a2 2 0 0 1 2 2v2"/>
  </symbol>
  <symbol id="icon-reports" viewBox="0 0 24 24" stroke-width="1.2" stroke-linecap="round" stroke-linejoin="round" fill="none">
    <path d="M3 7h18M3 12h18M3 17h18"/>
  </symbol>
  <symbol id="icon-settings" viewBox="0 0 24 24" stroke-width="0.6" stroke-linecap="round" stroke-linejoin="round" fill="none">
    <path d="M12 15a3 3 0 1 0 0-6 3 3 0 0 0 0 6z"/>
    <path d="M19.4 15a1.65 1.65 0 0 0 .33 1.82l.06.06a2 2 0 0 1-2.83 2.83l-.06-.06a1.65 1.65 0 0 0-1.82-.33 1.65 1.65 0 0 0-1 1.51V21a2 2 0 0 1-4 0v-.09a1.65 1.65 0 0 0-1-1.51 1.65 1.65 0 0 0-1.82.33l-.06.06A2 2 0 0 1 2.27 16.9l.06-.06a1.65 1.65 0 0 0 .33-1.82 1.65 1.65 0 0 0-1.51-1H3a2 2 0 0 1 0-4h.09c.67 0 1.27-.38 1.51-1a1.65 1.65 0 0 0-.33-1.82L4.31 4.7A2 2 0 0 1 7.14 1.87l.06.06A1.65 1.65 0 0 0 9 4.26c.23.62.84 1 1.51 1H11a2 2 0 0 1 4 0h.09c.67 0 1.27.38 1.51 1 .17.46.5.86.95 1.09l.06.03a2 2 0 0 1 1.87 2.83l-.06.06c-.18.23-.26.52-.23.81z"/>
  </symbol>
</svg>
